<svg width="108" height="34" viewBox="0 0 108 34" fill="none" xmlns="http://www.w3.org/2000/svg">
<mask id="path-1-inside-1_11540_11" fill="white">
<path d="M12.8488 25.9972V15.7867H25.1296C27.3681 15.3054 31.7109 13.0419 32.0298 7.78396H20.8948L12.8488 0.0571289H25.1296C27.4352 0.37908 32.0464 2.2096 32.0464 6.95608C32.0519 7.23994 32.0461 7.51584 32.0298 7.78396H33.7403C35.9518 8.42786 39.5826 10.24 39.97 15.7867C39.97 20.3125 35.8106 22.5937 33.7403 23.5136H20.8948V34L12.8488 25.9972Z"/>
</mask>
<path d="M12.8488 25.9972H-5.43837C-5.43837 30.8643 -3.49813 35.5307 -0.0472778 38.963L12.8488 25.9972ZM12.8488 15.7867V-2.50037C2.74906 -2.50037 -5.43837 5.68705 -5.43837 15.7867L12.8488 15.7867ZM25.1296 15.7867V34.0739C26.422 34.0739 27.7107 33.9369 28.9742 33.6652L25.1296 15.7867ZM32.0464 6.95608H13.7593C13.7593 7.07375 13.7604 7.19141 13.7627 7.30905L32.0464 6.95608ZM25.1296 0.0571289L27.6586 -18.0543C26.8207 -18.1713 25.9757 -18.23 25.1296 -18.23L25.1296 0.0571289ZM12.8488 0.0571289V-18.23C5.3849 -18.23 -1.32991 -13.694 -4.11629 -6.76974C-6.90266 0.154507 -5.20134 8.07722 0.182116 13.2471L12.8488 0.0571289ZM20.8948 7.78396L8.22818 20.9739C11.634 24.2446 16.1729 26.0711 20.8948 26.0711V7.78396ZM33.7403 7.78396L38.8525 -9.77406C37.1915 -10.2577 35.4703 -10.5032 33.7403 -10.5032L33.7403 7.78396ZM39.97 15.7867H58.2571C58.2571 15.3616 58.2423 14.9366 58.2127 14.5125L39.97 15.7867ZM33.7403 23.5136V41.8007C36.2983 41.8007 38.8278 41.264 41.1655 40.2254L33.7403 23.5136ZM20.8948 23.5136V5.22646C10.7951 5.22646 2.6077 13.4139 2.6077 23.5136L20.8948 23.5136ZM20.8948 34L7.99879 46.9658C13.2366 52.1754 21.0944 53.7219 27.9158 50.8856C34.7371 48.0494 39.1819 41.3875 39.1819 34H20.8948ZM31.1359 25.9972V15.7867H-5.43837V25.9972H31.1359ZM12.8488 34.0739H25.1296V-2.50037H12.8488V34.0739ZM28.9742 33.6652C35.3337 32.2976 49.262 25.7325 50.2834 8.89098L13.7762 6.67694C13.9418 3.94612 15.346 1.55386 16.9685 0.072315C18.2059 -1.05752 19.5879 -1.72673 21.2849 -2.09166L28.9742 33.6652ZM50.2834 8.89095C50.3297 8.12795 50.3448 7.36491 50.3301 6.60311L13.7627 7.30905C13.7589 7.11496 13.7625 6.90373 13.7762 6.67696L50.2834 8.89095ZM50.3335 6.95608C50.3335 -2.31763 45.4732 -8.95973 40.4923 -12.7315C36.0633 -16.0853 31.2177 -17.5573 27.6586 -18.0543L22.6005 18.1685C21.3471 17.9935 19.9598 17.5977 18.4129 16.4263C17.4986 15.734 16.2854 14.5708 15.299 12.7929C14.2591 10.9185 13.7593 8.86914 13.7593 6.95608H50.3335ZM25.1296 -18.23H12.8488V18.3442H25.1296V-18.23ZM0.182116 13.2471L8.22818 20.9739L33.5615 -5.406L25.5154 -13.1328L0.182116 13.2471ZM20.8948 26.0711H32.0298V-10.5032H20.8948V26.0711ZM32.0298 26.0711H33.7403V-10.5032H32.0298V26.0711ZM28.6281 25.342C28.0457 25.1724 26.3431 24.6046 24.6382 22.9077C23.7406 22.0142 22.981 20.9387 22.4512 19.7542C21.927 18.5824 21.766 17.6145 21.7274 17.061L58.2127 14.5125C57.7255 7.53807 54.956 1.4809 50.4401 -3.01412C46.2701 -7.16481 41.6464 -8.96059 38.8525 -9.77406L28.6281 25.342ZM21.6829 15.7867C21.6829 14.0035 22.1173 12.2606 22.8557 10.7488C23.5544 9.31795 24.3864 8.36961 24.9444 7.83213C25.8969 6.91457 26.5884 6.6803 26.3151 6.80173L41.1655 40.2254C42.9625 39.427 46.7689 37.5922 50.3187 34.1726C54.1373 30.4941 58.2571 24.3174 58.2571 15.7867H21.6829ZM33.7403 5.22646H20.8948V41.8007H33.7403V5.22646ZM2.6077 23.5136V34H39.1819V23.5136H2.6077ZM33.7909 21.0342L25.7448 13.0314L-0.0472778 38.963L7.99879 46.9658L33.7909 21.0342Z" fill="white" mask="url(#path-1-inside-1_11540_11)"/>
<path d="M47.5247 23.3714H41.5851V12.9258H47.5247V14.4912H43.4577V17.1538H47.2614V18.7192H43.4577V21.7914H47.5247V23.3714ZM59.3546 23.3714H57.0284L52.0836 15.1788H52.0251C52.0348 15.3933 52.0446 15.6225 52.0543 15.8664C52.0738 16.1004 52.0885 16.3443 52.0982 16.5978C52.108 16.8417 52.1177 17.0904 52.1275 17.344C52.1372 17.5975 52.147 17.8511 52.1567 18.1047V23.3714H50.4743V12.9258H52.7858L57.716 21.0599H57.7599C57.7502 20.8648 57.7404 20.6552 57.7307 20.4308C57.7209 20.1968 57.7112 19.9578 57.7014 19.714C57.7014 19.4701 57.6965 19.2214 57.6868 18.9679C57.677 18.7143 57.6673 18.4704 57.6575 18.2364V12.9258H59.3546V23.3714ZM73.4098 20.5186C73.4098 21.1331 73.2586 21.6646 72.9563 22.1132C72.6539 22.5619 72.2151 22.9081 71.6396 23.152C71.0739 23.3958 70.3961 23.5177 69.6061 23.5177C69.2257 23.5177 68.86 23.4933 68.5089 23.4445C68.1675 23.4055 67.8408 23.3421 67.5287 23.2544C67.2263 23.1666 66.9435 23.0593 66.6801 22.9325V21.1769C67.119 21.372 67.6018 21.5524 68.1285 21.7182C68.6552 21.8743 69.1916 21.9523 69.7378 21.9523C70.1571 21.9523 70.4985 21.8987 70.7618 21.7914C71.0349 21.6744 71.2349 21.5183 71.3617 21.3232C71.4884 21.1184 71.5518 20.8844 71.5518 20.621C71.5518 20.3284 71.4689 20.0797 71.3031 19.8749C71.1373 19.6701 70.8935 19.4799 70.5716 19.3043C70.2498 19.1288 69.8499 18.9435 69.372 18.7484C69.0502 18.6119 68.7332 18.4607 68.4211 18.2949C68.1187 18.1193 67.8456 17.9096 67.6018 17.6658C67.358 17.422 67.1629 17.1343 67.0166 16.8027C66.8703 16.4711 66.7972 16.0809 66.7972 15.6323C66.7972 15.0373 66.9386 14.5253 67.2214 14.0962C67.514 13.667 67.9188 13.3403 68.4357 13.116C68.9624 12.8917 69.572 12.7795 70.2644 12.7795C70.8204 12.7795 71.3421 12.838 71.8298 12.9551C72.3175 13.0721 72.8002 13.2379 73.2781 13.4525L72.6783 14.9593C72.2492 14.774 71.8347 14.6277 71.4348 14.5204C71.0349 14.4131 70.6253 14.3595 70.2059 14.3595C69.8743 14.3595 69.5915 14.4131 69.3574 14.5204C69.1233 14.618 68.9478 14.7594 68.8307 14.9447C68.7137 15.13 68.6552 15.3446 68.6552 15.5884C68.6552 15.8712 68.7283 16.1102 68.8746 16.3053C69.0209 16.5003 69.2452 16.6856 69.5476 16.8612C69.8597 17.027 70.2595 17.2172 70.7472 17.4317C71.3129 17.6756 71.7908 17.9292 72.1809 18.1925C72.571 18.4558 72.8734 18.7728 73.088 19.1434C73.3025 19.514 73.4098 19.9724 73.4098 20.5186ZM84.4524 23.3714H82.5798V18.7338H77.9861V23.3714H76.1134V12.9258H77.9861V17.1391H82.5798V12.9258H84.4524V23.3714ZM97.2367 18.134C97.2367 18.9435 97.1343 19.6798 96.9295 20.3431C96.7344 20.9965 96.432 21.5622 96.0224 22.0401C95.6225 22.518 95.1105 22.8837 94.4863 23.1373C93.8718 23.3909 93.1501 23.5177 92.3211 23.5177C91.4823 23.5177 90.7508 23.3909 90.1266 23.1373C89.5122 22.874 89.005 22.5082 88.6052 22.0401C88.2053 21.5622 87.9029 20.9916 87.6981 20.3284C87.503 19.6652 87.4055 18.9288 87.4055 18.1193C87.4055 17.0367 87.5811 16.0956 87.9322 15.2958C88.2931 14.496 88.8344 13.8767 89.5561 13.4378C90.2876 12.9892 91.2141 12.7649 92.3357 12.7649C93.4378 12.7649 94.3497 12.9892 95.0715 13.4378C95.7932 13.8767 96.3345 14.5009 96.6954 15.3104C97.0562 16.1102 97.2367 17.0514 97.2367 18.134ZM89.3805 18.134C89.3805 18.924 89.4829 19.6018 89.6878 20.1675C89.9023 20.7332 90.2242 21.1672 90.6533 21.4695C91.0922 21.7719 91.6481 21.9231 92.3211 21.9231C93.0136 21.9231 93.5744 21.7719 94.0035 21.4695C94.4327 21.1672 94.7496 20.7332 94.9544 20.1675C95.1593 19.6018 95.2617 18.924 95.2617 18.134C95.2617 16.9538 95.0325 16.0273 94.5741 15.3543C94.1157 14.6814 93.3696 14.3449 92.3357 14.3449C91.653 14.3449 91.0922 14.496 90.6533 14.7984C90.2242 15.1007 89.9023 15.5348 89.6878 16.1004C89.4829 16.6661 89.3805 17.344 89.3805 18.134ZM103.309 12.9258C104.664 12.9258 105.649 13.2086 106.264 13.7743C106.888 14.34 107.2 15.1202 107.2 16.1151C107.2 16.5637 107.132 16.9929 106.995 17.4025C106.859 17.8024 106.63 18.1632 106.308 18.4851C105.986 18.8069 105.562 19.0605 105.035 19.2458C104.518 19.4311 103.874 19.5238 103.104 19.5238H102.065V23.3714H100.192V12.9258H103.309ZM103.192 14.4765H102.065V17.973H102.914C103.421 17.973 103.85 17.9145 104.201 17.7975C104.562 17.6707 104.835 17.4756 105.02 17.2123C105.206 16.949 105.298 16.6076 105.298 16.1882C105.298 15.6128 105.128 15.1836 104.786 14.9008C104.445 14.618 103.913 14.4765 103.192 14.4765Z" fill="white"/>
<path d="M10.4069 18.4875C10.4069 19.2971 10.3045 20.0334 10.0997 20.6966C9.90464 21.3501 9.60229 21.9158 9.19266 22.3937C8.79278 22.8716 8.28074 23.2373 7.65654 23.4909C7.0421 23.7445 6.32036 23.8713 5.49135 23.8713C4.65258 23.8713 3.92109 23.7445 3.29689 23.4909C2.68245 23.2276 2.17528 22.8618 1.7754 22.3937C1.37553 21.9158 1.07318 21.3452 0.868363 20.682C0.6733 20.0188 0.575769 19.2824 0.575769 18.4729C0.575769 17.3903 0.751326 16.4491 1.10244 15.6494C1.4633 14.8496 2.0046 14.2303 2.72633 13.7914C3.45782 13.3428 4.38437 13.1184 5.50598 13.1184C6.60808 13.1184 7.52 13.3428 8.24173 13.7914C8.96346 14.2303 9.50476 14.8545 9.86563 15.664C10.2265 16.4638 10.4069 17.4049 10.4069 18.4875ZM2.55078 18.4875C2.55078 19.2775 2.65319 19.9554 2.858 20.5211C3.07257 21.0868 3.39442 21.5208 3.82356 21.8231C4.26245 22.1255 4.81838 22.2766 5.49135 22.2766C6.18382 22.2766 6.74463 22.1255 7.17376 21.8231C7.6029 21.5208 7.91988 21.0868 8.12469 20.5211C8.32951 19.9554 8.43192 19.2775 8.43192 18.4875C8.43192 17.3074 8.20272 16.3809 7.74432 15.7079C7.28592 15.0349 6.53981 14.6985 5.50598 14.6985C4.82326 14.6985 4.26245 14.8496 3.82356 15.152C3.39442 15.4543 3.07257 15.8883 2.858 16.454C2.65319 17.0197 2.55078 17.6975 2.55078 18.4875Z" fill="white"/>
</svg>
