<svg width="157" height="54" viewBox="0 0 157 54" fill="none" xmlns="http://www.w3.org/2000/svg">
<mask id="path-1-inside-1_11540_3" fill="white">
<path d="M19.6123 40.7088V24.6851H38.3576C41.7745 23.9297 48.4033 20.3775 48.89 12.126H31.8937L19.6123 0H38.3576C41.8769 0.505251 48.9153 3.37796 48.9153 10.8268C48.9237 11.2723 48.9149 11.7052 48.89 12.126H51.5009C54.8765 13.1365 60.4185 15.9804 61.0099 24.6851C61.0099 31.7875 54.661 35.3675 51.5009 36.8111H31.8937V53.2679L19.6123 40.7088Z"/>
</mask>
<path d="M19.6123 40.7088H-5.31025C-5.31025 47.2222 -2.76037 53.4767 1.79352 58.1336L19.6123 40.7088ZM19.6123 24.6851V-0.237448C5.84796 -0.237448 -5.31025 10.9208 -5.31025 24.6851L19.6123 24.6851ZM38.3576 24.6851V49.6077C40.1671 49.6077 41.9712 49.4106 43.738 49.02L38.3576 24.6851ZM48.9153 10.8268H23.9928C23.9928 10.9828 23.9943 11.1387 23.9972 11.2947L48.9153 10.8268ZM38.3576 0L41.8994 -24.6696C40.7263 -24.838 39.5427 -24.9226 38.3576 -24.9226L38.3576 0ZM19.6123 0V-24.9226C9.50319 -24.9226 0.395463 -18.816 -3.44338 -9.4641C-7.28222 -0.11222 -5.09163 10.6322 2.10196 17.7348L19.6123 0ZM31.8937 12.126L14.3834 29.8608C19.0478 34.4662 25.3388 37.0486 31.8937 37.0486V12.126ZM51.5009 12.126L58.6482 -11.7497C56.3293 -12.4439 53.9215 -12.7965 51.5009 -12.7965V12.126ZM61.0099 24.6851H85.9325C85.9325 24.1215 85.9133 23.5581 85.8751 22.9958L61.0099 24.6851ZM51.5009 36.8111V61.7337C55.0744 61.7337 58.606 60.9652 61.8564 59.4804L51.5009 36.8111ZM31.8937 36.8111V11.8886C18.1294 11.8886 6.97117 23.0468 6.97117 36.8111L31.8937 36.8111ZM31.8937 53.2679L14.0749 70.6927C21.1581 77.936 31.921 80.1708 41.3023 76.3462C50.6836 72.5217 56.8163 63.3988 56.8163 53.2679L31.8937 53.2679ZM44.5349 40.7088V24.6851H-5.31025V40.7088H44.5349ZM19.6123 49.6077H38.3576V-0.237448H19.6123V49.6077ZM43.738 49.02C53.205 46.9268 72.3749 37.2328 73.7693 13.5936L24.0107 10.6585C24.1853 7.69957 25.718 4.87378 27.6643 3.04658C28.4916 2.26995 29.304 1.7462 30.0168 1.38123C30.6793 1.04194 31.6261 0.648982 32.9773 0.350238L43.738 49.02ZM73.7693 13.5936C73.8329 12.5166 73.8538 11.4378 73.8335 10.3589L23.9972 11.2947C23.9937 11.1067 23.9968 10.8939 24.0107 10.6584L73.7693 13.5936ZM73.8379 10.8268C73.8379 -2.00988 67.31 -11.3722 60.2666 -16.8558C53.9903 -21.7422 47.0448 -23.9309 41.8994 -24.6696L34.8159 24.6696C33.1897 24.4361 31.5231 23.9365 29.6458 22.4749C28.5159 21.5952 27.0284 20.1243 25.8277 17.8993C24.5642 15.558 23.9928 13.0628 23.9928 10.8268H73.8379ZM38.3576 -24.9226H19.6123V24.9226H38.3576V-24.9226ZM2.10196 17.7348L14.3834 29.8608L49.4041 -5.60874L37.1226 -17.7348L2.10196 17.7348ZM31.8937 37.0486H48.89V-12.7965H31.8937V37.0486ZM48.89 37.0486H51.5009V-12.7965H48.89V37.0486ZM44.3536 36.0017C43.6614 35.7945 41.5635 35.0765 39.4741 32.9383C38.3799 31.8186 37.4942 30.5102 36.8962 29.1358C36.3075 27.7827 36.1713 26.7666 36.1447 26.3744L85.8751 22.9958C85.2031 13.1046 81.4034 4.52745 75.1248 -1.89788C69.2728 -7.88679 62.716 -10.532 58.6482 -11.7497L44.3536 36.0017ZM36.0874 24.6851C36.0874 22.604 36.583 20.5188 37.4567 18.6795C38.2828 16.9406 39.2639 15.7952 39.9025 15.1627C40.9647 14.1106 41.654 13.9095 41.1454 14.1418L61.8564 59.4804C64.5079 58.2692 69.9517 55.5562 74.9784 50.5776C80.3781 45.2296 85.9325 36.5273 85.9325 24.6851H36.0874ZM51.5009 11.8886H31.8937V61.7337H51.5009V11.8886ZM6.97117 36.8111V53.2679H56.8163V36.8111H6.97117ZM49.7125 35.843L37.4311 23.2839L1.79352 58.1336L14.0749 70.6927L49.7125 35.843Z" fill="white" mask="url(#path-1-inside-1_11540_3)"/>
<path d="M73.1797 34.2232H65.0849V19.9875H73.1797V22.1208H67.6369V25.7496H72.8208V27.8829H67.6369V32.0699H73.1797V34.2232ZM89.302 34.2232H86.1318L79.3928 23.0579H79.313C79.3263 23.3504 79.3396 23.6627 79.3529 23.995C79.3795 24.314 79.3994 24.6463 79.4127 24.9919C79.426 25.3242 79.4393 25.6632 79.4526 26.0088C79.4659 26.3544 79.4791 26.6999 79.4924 27.0455V34.2232H77.1996V19.9875H80.3498L87.0689 31.073H87.1287C87.1154 30.8072 87.1021 30.5214 87.0888 30.2157C87.0755 29.8967 87.0623 29.571 87.049 29.2387C87.049 28.9064 87.0423 28.5675 87.029 28.2219C87.0157 27.8763 87.0024 27.544 86.9891 27.225V19.9875H89.302V34.2232ZM108.457 30.3353C108.457 31.1727 108.251 31.8971 107.839 32.5086C107.427 33.12 106.829 33.5919 106.045 33.9242C105.274 34.2565 104.35 34.4226 103.273 34.4226C102.755 34.4226 102.256 34.3894 101.778 34.3229C101.313 34.2698 100.867 34.1834 100.442 34.0637C100.03 33.9441 99.6445 33.7979 99.2856 33.6251V31.2325C99.8838 31.4984 100.542 31.7443 101.259 31.9702C101.977 32.1829 102.708 32.2892 103.453 32.2892C104.024 32.2892 104.489 32.2161 104.848 32.0699C105.221 31.9104 105.493 31.6978 105.666 31.4319C105.839 31.1528 105.925 30.8338 105.925 30.4749C105.925 30.0761 105.812 29.7372 105.586 29.458C105.36 29.1789 105.028 28.9197 104.589 28.6805C104.151 28.4412 103.606 28.1887 102.954 27.9228C102.516 27.7367 102.084 27.5307 101.658 27.3047C101.246 27.0655 100.874 26.7797 100.542 26.4474C100.209 26.1151 99.9436 25.723 99.7442 25.2711C99.5448 24.8191 99.4451 24.2874 99.4451 23.676C99.4451 22.8652 99.6379 22.1674 100.023 21.5825C100.422 20.9977 100.974 20.5524 101.678 20.2467C102.396 19.941 103.227 19.7881 104.17 19.7881C104.928 19.7881 105.639 19.8678 106.304 20.0273C106.968 20.1869 107.626 20.4128 108.278 20.7052L107.46 22.7589C106.875 22.5063 106.31 22.3069 105.765 22.1607C105.221 22.0145 104.662 21.9414 104.091 21.9414C103.639 21.9414 103.253 22.0145 102.934 22.1607C102.615 22.2936 102.376 22.4864 102.217 22.7389C102.057 22.9915 101.977 23.2839 101.977 23.6162C101.977 24.0017 102.077 24.3273 102.276 24.5932C102.476 24.859 102.781 25.1115 103.193 25.3508C103.619 25.5768 104.164 25.836 104.828 26.1284C105.599 26.4607 106.251 26.8063 106.782 27.1652C107.314 27.5241 107.726 27.956 108.018 28.4611C108.311 28.9662 108.457 29.591 108.457 30.3353ZM123.506 34.2232H120.954V27.9029H114.694V34.2232H112.142V19.9875H114.694V25.7296H120.954V19.9875H123.506V34.2232ZM140.929 27.0854C140.929 28.1887 140.79 29.1922 140.511 30.0961C140.245 30.9866 139.833 31.7576 139.275 32.4089C138.73 33.0602 138.032 33.5586 137.181 33.9042C136.344 34.2498 135.36 34.4226 134.23 34.4226C133.087 34.4226 132.09 34.2498 131.24 33.9042C130.402 33.5453 129.711 33.0469 129.166 32.4089C128.621 31.7576 128.209 30.98 127.93 30.0761C127.664 29.1723 127.531 28.1687 127.531 27.0655C127.531 25.5901 127.77 24.3074 128.249 23.2174C128.741 22.1275 129.478 21.2834 130.462 20.6853C131.459 20.0739 132.722 19.7682 134.25 19.7682C135.752 19.7682 136.995 20.0739 137.979 20.6853C138.962 21.2834 139.7 22.1341 140.192 23.2374C140.684 24.3273 140.929 25.61 140.929 27.0854ZM130.223 27.0854C130.223 28.1621 130.362 29.0859 130.641 29.8568C130.934 30.6277 131.373 31.2192 131.957 31.6313C132.556 32.0433 133.313 32.2494 134.23 32.2494C135.174 32.2494 135.938 32.0433 136.523 31.6313C137.108 31.2192 137.54 30.6277 137.819 29.8568C138.098 29.0859 138.238 28.1621 138.238 27.0854C138.238 25.4771 137.925 24.2143 137.301 23.2972C136.676 22.38 135.659 21.9215 134.25 21.9215C133.32 21.9215 132.556 22.1275 131.957 22.5395C131.373 22.9516 130.934 23.5431 130.641 24.314C130.362 25.085 130.223 26.0088 130.223 27.0854ZM149.205 19.9875C151.052 19.9875 152.395 20.3729 153.232 21.1439C154.083 21.9148 154.508 22.9782 154.508 24.334C154.508 24.9454 154.415 25.5302 154.229 26.0885C154.043 26.6335 153.731 27.1253 153.292 27.5639C152.853 28.0026 152.275 28.3482 151.557 28.6007C150.853 28.8533 149.976 28.9795 148.925 28.9795H147.51V34.2232H144.958V19.9875H149.205ZM149.045 22.1009H147.51V26.8661H148.666C149.357 26.8661 149.942 26.7863 150.421 26.6268C150.913 26.454 151.285 26.1882 151.537 25.8293C151.79 25.4704 151.916 25.0052 151.916 24.4337C151.916 23.6494 151.684 23.0646 151.218 22.6791C150.753 22.2936 150.029 22.1009 149.045 22.1009Z" fill="white"/>
<path d="M15.0812 27.173C15.0812 28.2762 14.9416 29.2798 14.6625 30.1836C14.3966 31.0742 13.9846 31.8452 13.4263 32.4965C12.8813 33.1478 12.1835 33.6462 11.3328 33.9918C10.4954 34.3374 9.5118 34.5102 8.38198 34.5102C7.23886 34.5102 6.24196 34.3374 5.39127 33.9918C4.55387 33.6329 3.86269 33.1345 3.31772 32.4965C2.77274 31.8452 2.36069 31.0676 2.08156 30.1637C1.81572 29.2599 1.6828 28.2563 1.6828 27.1531C1.6828 25.6776 1.92205 24.395 2.40057 23.305C2.89237 22.2151 3.63008 21.371 4.61369 20.7729C5.61059 20.1615 6.87333 19.8557 8.40192 19.8557C9.90392 19.8557 11.1467 20.1615 12.1303 20.7729C13.1139 21.371 13.8516 22.2217 14.3435 23.325C14.8353 24.4149 15.0812 25.6976 15.0812 27.173ZM4.37443 27.173C4.37443 28.2497 4.514 29.1735 4.79313 29.9444C5.08556 30.7153 5.52419 31.3068 6.10904 31.7189C6.70718 32.1309 7.46483 32.337 8.38198 32.337C9.32571 32.337 10.09 32.1309 10.6749 31.7189C11.2597 31.3068 11.6917 30.7153 11.9708 29.9444C12.25 29.1735 12.3895 28.2497 12.3895 27.173C12.3895 25.5647 12.0772 24.3019 11.4524 23.3848C10.8277 22.4676 9.81087 22.009 8.40192 22.009C7.47148 22.009 6.70718 22.2151 6.10904 22.6271C5.52419 23.0392 5.08556 23.6307 4.79313 24.4016C4.514 25.1726 4.37443 26.0963 4.37443 27.173Z" fill="white"/>
</svg>
