<svg width="80" height="26" viewBox="0 0 80 26" fill="none" xmlns="http://www.w3.org/2000/svg">
<mask id="path-1-inside-1_11540_11" fill="white">
<path d="M9.51758 19.672V12.1087H18.6145C20.2726 11.7521 23.4896 10.0755 23.7258 6.1807H15.4776L9.51758 0.457123H18.6145C20.3223 0.695605 23.738 2.05155 23.738 5.56746C23.7421 5.77772 23.7378 5.98209 23.7258 6.1807H24.9928C26.6309 6.65766 29.3204 7.99998 29.6074 12.1087C29.6074 15.4611 26.5264 17.1509 24.9928 17.8323H15.4776V25.6L9.51758 19.672Z"/>
</mask>
<path d="M9.51758 19.672H-4.02844C-4.02844 23.2773 -2.59123 26.7338 -0.0350389 29.2763L9.51758 19.672ZM9.51758 12.1087V-1.43732C2.03632 -1.43732 -4.02844 4.62743 -4.02844 12.1087L9.51758 12.1087ZM18.6145 12.1087V25.6547C19.5718 25.6547 20.5264 25.5532 21.4624 25.352L18.6145 12.1087ZM23.738 5.56746H10.192C10.192 5.65461 10.1929 5.74176 10.1945 5.8289L23.738 5.56746ZM18.6145 0.457123L20.4879 -12.9587C19.8672 -13.0454 19.2412 -13.0889 18.6145 -13.0889L18.6145 0.457123ZM9.51758 0.457123V-13.0889C3.9888 -13.0889 -0.985137 -9.7289 -3.04912 -4.59982C-5.1131 0.529255 -3.85286 6.39793 0.134883 10.2275L9.51758 0.457123ZM15.4776 6.1807L6.09493 15.951C8.61774 18.3738 11.9799 19.7267 15.4776 19.7267L15.4776 6.1807ZM24.9928 6.1807L28.7796 -6.82524C27.5492 -7.18348 26.2743 -7.36532 24.9928 -7.36532L24.9928 6.1807ZM29.6074 12.1087H43.1534C43.1534 11.7938 43.1424 11.4789 43.1205 11.1648L29.6074 12.1087ZM24.9928 17.8323V31.3783C26.8876 31.3783 28.7613 30.9808 30.4929 30.2114L24.9928 17.8323ZM15.4776 17.8323V4.28625C7.99637 4.28625 1.93161 10.351 1.93161 17.8323L15.4776 17.8323ZM15.4776 25.6L5.92501 35.2043C9.80486 39.0632 15.6255 40.2088 20.6783 38.1079C25.7312 36.0069 29.0236 31.0722 29.0236 25.6H15.4776ZM23.0636 19.672V12.1087H-4.02844V19.672H23.0636ZM9.51758 25.6547H18.6145V-1.43732H9.51758V25.6547ZM21.4624 25.352C26.1731 24.3389 36.4904 19.4759 37.2469 7.00072L10.2046 5.36068C10.3273 3.33785 11.3674 1.56581 12.5693 0.468372C13.4858 -0.368544 14.5095 -0.864252 15.7666 -1.13457L21.4624 25.352ZM37.2469 7.00072C37.2812 6.43549 37.2924 5.87027 37.2815 5.30602L10.1945 5.8289C10.1918 5.68517 10.1944 5.5287 10.2046 5.36068L37.2469 7.00072ZM37.2841 5.56746C37.2841 -1.30196 33.6838 -6.22203 29.9943 -9.0159C26.7136 -11.5002 23.1242 -12.5906 20.4879 -12.9587L16.7411 13.873C15.8126 13.7433 14.785 13.4501 13.6391 12.5824C12.9619 12.0696 12.0632 11.208 11.3326 9.89101C10.5623 8.5026 10.192 6.98454 10.192 5.56746H37.2841ZM18.6145 -13.0889H9.51758V14.0031H18.6145V-13.0889ZM0.134883 10.2275L6.09493 15.951L24.8603 -3.58964L18.9003 -9.31322L0.134883 10.2275ZM15.4776 19.7267H23.7258V-7.36532H15.4776V19.7267ZM23.7258 19.7267H24.9928V-7.36532H23.7258V19.7267ZM21.206 19.1866C20.7746 19.061 19.5134 18.6405 18.2505 17.3835C17.5856 16.7216 17.023 15.925 16.6305 15.0476C16.2422 14.1796 16.123 13.4626 16.0943 13.0526L43.1205 11.1648C42.7596 5.99856 40.7081 1.51176 37.363 -1.81787C34.2741 -4.89247 30.8491 -6.22267 28.7796 -6.82524L21.206 19.1866ZM16.0614 12.1087C16.0614 10.7878 16.3831 9.49675 16.9301 8.37685C17.4477 7.31699 18.064 6.61452 18.4773 6.21638C19.1828 5.53671 19.6951 5.36318 19.4927 5.45313L30.4929 30.2114C31.824 29.62 34.6436 28.2608 37.2731 25.7278C40.1017 23.003 43.1534 18.4277 43.1534 12.1087H16.0614ZM24.9928 4.28625H15.4776V31.3783H24.9928V4.28625ZM1.93161 17.8323V25.6H29.0236V17.8323H1.93161ZM25.0302 15.9957L19.0702 10.0677L-0.0350389 29.2763L5.92501 35.2043L25.0302 15.9957Z" fill="white" mask="url(#path-1-inside-1_11540_11)"/>
<path d="M35.2035 17.8381H30.8037V10.1006H35.2035V11.2601H32.1908V13.2324H35.0084V14.392H32.1908V16.6677H35.2035V17.8381ZM43.9663 17.8381H42.2433L38.5804 11.7695H38.5371C38.5443 11.9284 38.5515 12.0982 38.5587 12.2788C38.5732 12.4522 38.584 12.6328 38.5912 12.8206C38.5985 13.0012 38.6057 13.1855 38.6129 13.3733C38.6201 13.5611 38.6274 13.749 38.6346 13.9368V17.8381H37.3884V10.1006H39.1006L42.7526 16.1259H42.7851C42.7779 15.9814 42.7706 15.826 42.7634 15.6599C42.7562 15.4865 42.749 15.3095 42.7417 15.1289C42.7417 14.9483 42.7381 14.764 42.7309 14.5762C42.7237 14.3884 42.7165 14.2077 42.7092 14.0344V10.1006H43.9663V17.8381ZM54.3776 15.7249C54.3776 16.18 54.2656 16.5738 54.0417 16.9061C53.8177 17.2384 53.4926 17.4949 53.0664 17.6755C52.6473 17.8561 52.1452 17.9464 51.56 17.9464C51.2783 17.9464 51.0074 17.9284 50.7473 17.8923C50.4944 17.8634 50.2524 17.8164 50.0212 17.7514C49.7972 17.6864 49.5877 17.6069 49.3927 17.513V16.2126C49.7178 16.357 50.0754 16.4907 50.4655 16.6135C50.8556 16.7291 51.253 16.7869 51.6576 16.7869C51.9682 16.7869 52.2211 16.7472 52.4161 16.6677C52.6184 16.581 52.7665 16.4654 52.8605 16.3209C52.9544 16.1692 53.0013 15.9958 53.0013 15.8008C53.0013 15.584 52.9399 15.3998 52.8171 15.2481C52.6943 15.0964 52.5137 14.9555 52.2753 14.8254C52.0369 14.6954 51.7406 14.5581 51.3866 14.4136C51.1482 14.3125 50.9134 14.2005 50.6823 14.0777C50.4583 13.9477 50.256 13.7923 50.0754 13.6117C49.8948 13.4311 49.7503 13.218 49.6419 12.9723C49.5335 12.7267 49.4794 12.4377 49.4794 12.1054C49.4794 11.6647 49.5841 11.2854 49.7936 10.9675C50.0104 10.6497 50.3102 10.4076 50.6931 10.2415C51.0832 10.0753 51.5347 9.99222 52.0477 9.99222C52.4595 9.99222 52.846 10.0356 53.2072 10.1223C53.5685 10.209 53.9261 10.3318 54.2801 10.4907L53.8358 11.6069C53.5179 11.4696 53.2108 11.3613 52.9146 11.2818C52.6184 11.2023 52.315 11.1626 52.0043 11.1626C51.7587 11.1626 51.5492 11.2023 51.3758 11.2818C51.2024 11.354 51.0724 11.4588 50.9857 11.5961C50.899 11.7333 50.8556 11.8923 50.8556 12.0729C50.8556 12.2824 50.9098 12.4594 51.0182 12.6039C51.1266 12.7484 51.2927 12.8856 51.5167 13.0157C51.7479 13.1385 52.0441 13.2794 52.4053 13.4383C52.8243 13.6189 53.1783 13.8068 53.4673 14.0018C53.7563 14.1969 53.9803 14.4317 54.1392 14.7062C54.2981 14.9808 54.3776 15.3203 54.3776 15.7249ZM62.5573 17.8381H61.1702V14.4028H57.7674V17.8381H56.3803V10.1006H57.7674V13.2216H61.1702V10.1006H62.5573V17.8381ZM72.0271 13.9585C72.0271 14.5581 71.9513 15.1036 71.7996 15.5949C71.6551 16.0789 71.4311 16.4979 71.1277 16.8519C70.8315 17.2059 70.4522 17.4768 69.9898 17.6647C69.5347 17.8525 69.0001 17.9464 68.386 17.9464C67.7647 17.9464 67.2228 17.8525 66.7604 17.6647C66.3053 17.4696 65.9296 17.1987 65.6334 16.8519C65.3372 16.4979 65.1132 16.0753 64.9615 15.584C64.817 15.0927 64.7448 14.5473 64.7448 13.9477C64.7448 13.1457 64.8748 12.4486 65.1349 11.8562C65.4022 11.2637 65.8032 10.805 66.3378 10.4799C66.8796 10.1475 67.566 9.98138 68.3968 9.98138C69.2132 9.98138 69.8887 10.1475 70.4233 10.4799C70.9579 10.805 71.3589 11.2674 71.6262 11.867C71.8935 12.4594 72.0271 13.1566 72.0271 13.9585ZM66.2078 13.9585C66.2078 14.5437 66.2836 15.0458 66.4353 15.4648C66.5943 15.8838 66.8327 16.2053 67.1506 16.4293C67.4757 16.6532 67.8875 16.7652 68.386 16.7652C68.8989 16.7652 69.3143 16.6532 69.6322 16.4293C69.9501 16.2053 70.1849 15.8838 70.3366 15.4648C70.4883 15.0458 70.5642 14.5437 70.5642 13.9585C70.5642 13.0843 70.3944 12.398 70.0548 11.8995C69.7153 11.401 69.1626 11.1518 68.3968 11.1518C67.8911 11.1518 67.4757 11.2637 67.1506 11.4877C66.8327 11.7117 66.5943 12.0332 66.4353 12.4522C66.2836 12.8712 66.2078 13.3733 66.2078 13.9585ZM76.5248 10.1006C77.529 10.1006 78.2587 10.3101 78.7139 10.7291C79.1762 11.1481 79.4074 11.7261 79.4074 12.463C79.4074 12.7953 79.3569 13.1132 79.2557 13.4167C79.1546 13.7129 78.9848 13.9802 78.7464 14.2186C78.508 14.457 78.1937 14.6448 77.8036 14.7821C77.4207 14.9194 76.9439 14.988 76.3731 14.988H75.6037V17.8381H74.2166V10.1006H76.5248ZM76.4381 11.2493H75.6037V13.8393H76.2322C76.6079 13.8393 76.9258 13.7959 77.1859 13.7092C77.4532 13.6153 77.6555 13.4708 77.7927 13.2758C77.93 13.0807 77.9986 12.8279 77.9986 12.5172C77.9986 12.0909 77.8722 11.7731 77.6194 11.5636C77.3665 11.354 76.9728 11.2493 76.4381 11.2493Z" fill="white"/>
<path d="M7.70883 14.2204C7.70883 14.82 7.63298 15.3655 7.48126 15.8568C7.33677 16.3408 7.11281 16.7598 6.80938 17.1138C6.51317 17.4678 6.13388 17.7387 5.67151 17.9266C5.21637 18.1144 4.68175 18.2083 4.06766 18.2083C3.44635 18.2083 2.90451 18.1144 2.44214 17.9266C1.987 17.7315 1.61132 17.4606 1.31511 17.1138C1.01891 16.7598 0.794947 16.3372 0.643232 15.8459C0.498741 15.3546 0.426495 14.8092 0.426495 14.2096C0.426495 13.4076 0.556537 12.7105 0.816621 12.1181C1.08393 11.5256 1.48489 11.0669 2.01951 10.7418C2.56135 10.4094 3.24768 10.2433 4.0785 10.2433C4.89487 10.2433 5.57037 10.4094 6.10499 10.7418C6.6396 11.0669 7.04056 11.5293 7.30787 12.1289C7.57518 12.7213 7.70883 13.4185 7.70883 14.2204ZM1.88947 14.2204C1.88947 14.8056 1.96532 15.3077 2.11704 15.7267C2.27598 16.1457 2.51439 16.4672 2.83227 16.6912C3.15737 16.9152 3.56917 17.0271 4.06766 17.0271C4.58061 17.0271 4.99602 16.9152 5.3139 16.6912C5.63178 16.4672 5.86658 16.1457 6.01829 15.7267C6.17001 15.3077 6.24586 14.8056 6.24586 14.2204C6.24586 13.3462 6.07609 12.6599 5.73653 12.1614C5.39698 11.6629 4.8443 11.4137 4.0785 11.4137C3.57278 11.4137 3.15737 11.5256 2.83227 11.7496C2.51439 11.9736 2.27598 12.2951 2.11704 12.7141C1.96532 13.1331 1.88947 13.6352 1.88947 14.2204Z" fill="white"/>
</svg>
