<svg width="85" height="28" viewBox="0 0 85 28" fill="none" xmlns="http://www.w3.org/2000/svg">
<mask id="path-1-inside-1_11540_11" fill="white">
<path d="M10.1124 21.0872V13.0512H19.7779C21.5397 12.6723 24.9577 10.8909 25.2086 6.75272H16.445L10.1124 0.671417H19.7779C21.5925 0.924805 25.2217 2.36549 25.2217 6.10115C25.226 6.32455 25.2214 6.5417 25.2086 6.75272H26.5548C28.2954 7.25949 31.1529 8.6857 31.4579 13.0512C31.4579 16.6131 28.1843 18.4085 26.5548 19.1325H16.445V27.3857L10.1124 21.0872Z"/>
</mask>
<path d="M10.1124 21.0872H-4.28022C-4.28022 24.9178 -2.75318 28.5904 -0.0372281 31.2918L10.1124 21.0872ZM10.1124 13.0512V-1.34143C2.16359 -1.34143 -4.28022 5.10237 -4.28022 13.0512L10.1124 13.0512ZM19.7779 13.0512V27.4439C20.7951 27.4439 21.8093 27.336 22.8038 27.1222L19.7779 13.0512ZM25.2217 6.10115H10.829C10.829 6.19375 10.8299 6.28635 10.8317 6.37893L25.2217 6.10115ZM19.7779 0.671417L21.7684 -13.5829C21.1089 -13.675 20.4438 -13.7212 19.7779 -13.7212L19.7779 0.671417ZM10.1124 0.671417V-13.7212C4.2381 -13.7212 -1.04671 -10.1512 -3.23969 -4.70158C-5.43267 0.748058 -4.09367 6.98353 0.143313 11.0524L10.1124 0.671417ZM16.445 6.75272L6.47586 17.1337C9.15635 19.7078 12.7286 21.1454 16.445 21.1454V6.75272ZM26.5548 6.75272L30.5784 -7.06609C29.2711 -7.44672 27.9164 -7.63992 26.5548 -7.63992L26.5548 6.75272ZM31.4579 13.0512H45.8505C45.8505 12.7166 45.8388 12.3821 45.8155 12.0483L31.4579 13.0512ZM26.5548 19.1325V33.5252C28.5681 33.5252 30.5589 33.1028 32.3987 32.2853L26.5548 19.1325ZM16.445 19.1325V4.73987C8.49614 4.73987 2.05234 11.1837 2.05234 19.1325L16.445 19.1325ZM16.445 27.3857L6.29532 37.5902C10.4177 41.6904 16.6021 42.9076 21.9707 40.6753C27.3394 38.4431 30.8376 33.1999 30.8376 27.3857L16.445 27.3857ZM24.5051 21.0872V13.0512H-4.28022V21.0872H24.5051ZM10.1124 27.4439H19.7779V-1.34143H10.1124V27.4439ZM22.8038 27.1222C27.8089 26.0459 38.771 20.8789 39.5749 7.62399L10.8424 5.88145C10.9727 3.7322 12.0779 1.8494 13.3548 0.683369C14.3287 -0.205855 15.4164 -0.732545 16.752 -1.01976L22.8038 27.1222ZM39.5749 7.62397C39.6113 7.02345 39.6232 6.42291 39.6116 5.82337L10.8317 6.37893C10.8288 6.22619 10.8315 6.05995 10.8424 5.88147L39.5749 7.62397ZM39.6143 6.10115C39.6143 -1.1976 35.7891 -6.42519 31.8689 -9.39367C28.3832 -12.0332 24.5695 -13.1918 21.7684 -13.5829L17.7874 14.9258C16.8009 14.788 15.7091 14.4765 14.4916 13.5545C13.772 13.0097 12.8172 12.0942 12.0408 10.6949C11.2224 9.21973 10.829 7.6068 10.829 6.10115H39.6143ZM19.7779 -13.7212H10.1124V15.0641H19.7779V-13.7212ZM0.143313 11.0524L6.47586 17.1337L26.4141 -3.62827L20.0815 -9.70957L0.143313 11.0524ZM16.445 21.1454H25.2086V-7.63992H16.445V21.1454ZM25.2086 21.1454H26.5548V-7.63992H25.2086V21.1454ZM22.5313 20.5715C22.073 20.4381 20.733 19.9912 19.3912 18.6556C18.6847 17.9524 18.0869 17.106 17.6699 16.1738C17.2573 15.2515 17.1306 14.4897 17.1002 14.0541L45.8155 12.0483C45.4321 6.5592 43.2524 1.79197 39.6982 -1.74577C36.4163 -5.01252 32.7772 -6.42586 30.5784 -7.06609L22.5313 20.5715ZM17.0652 13.0512C17.0652 11.6477 17.4071 10.276 17.9882 9.08613C18.5382 7.96002 19.193 7.21365 19.6321 6.79063C20.3818 6.06848 20.9261 5.8841 20.711 5.97967L32.3987 32.2853C33.813 31.657 36.8088 30.2129 39.6027 27.5215C42.608 24.6264 45.8505 19.7652 45.8505 13.0512H17.0652ZM26.5548 4.73987H16.445V33.5252H26.5548V4.73987ZM2.05234 19.1325V27.3857H30.8376V19.1325H2.05234ZM26.5946 17.1812L20.2621 10.8827L-0.0372281 31.2918L6.29532 37.5902L26.5946 17.1812Z" fill="white" mask="url(#path-1-inside-1_11540_11)"/>
<path d="M37.4037 18.5762H32.729V10.3551H37.4037V11.5871H34.2028V13.6827H37.1965V14.9147H34.2028V17.3326H37.4037V18.5762ZM46.7142 18.5762H44.8835L40.9917 12.1283H40.9457C40.9533 12.2971 40.961 12.4775 40.9687 12.6694C40.984 12.8537 40.9956 13.0456 41.0032 13.2451C41.0109 13.437 41.0186 13.6328 41.0263 13.8324C41.0339 14.0319 41.0416 14.2315 41.0493 14.4311V18.5762H39.7252V10.3551H41.5444L45.4247 16.7569H45.4592C45.4515 16.6034 45.4438 16.4384 45.4362 16.2618C45.4285 16.0776 45.4208 15.8895 45.4131 15.6976C45.4131 15.5057 45.4093 15.31 45.4016 15.1104C45.394 14.9108 45.3863 14.7189 45.3786 14.5347V10.3551H46.7142V18.5762ZM57.7762 16.3309C57.7762 16.8145 57.6573 17.2329 57.4193 17.586C57.1813 17.9391 56.8359 18.2116 56.383 18.4035C55.9378 18.5954 55.4043 18.6913 54.7826 18.6913C54.4832 18.6913 54.1954 18.6721 53.919 18.6337C53.6504 18.603 53.3932 18.5531 53.1476 18.4841C52.9096 18.415 52.687 18.3305 52.4798 18.2307V16.8491C52.8252 17.0026 53.2051 17.1446 53.6196 17.2751C54.0342 17.3979 54.4563 17.4593 54.8862 17.4593C55.2163 17.4593 55.4849 17.4171 55.6922 17.3326C55.9071 17.2405 56.0645 17.1177 56.1643 16.9642C56.2641 16.803 56.314 16.6188 56.314 16.4115C56.314 16.1812 56.2487 15.9855 56.1182 15.8243C55.9877 15.6631 55.7958 15.5134 55.5425 15.3752C55.2892 15.2371 54.9745 15.0912 54.5983 14.9377C54.345 14.8302 54.0956 14.7113 53.8499 14.5808C53.612 14.4426 53.397 14.2776 53.2051 14.0857C53.0132 13.8938 52.8597 13.6673 52.7446 13.4063C52.6294 13.1453 52.5719 12.8383 52.5719 12.4852C52.5719 12.017 52.6832 11.614 52.9058 11.2762C53.1361 10.9385 53.4546 10.6813 53.8614 10.5048C54.276 10.3282 54.7557 10.24 55.3007 10.24C55.7382 10.24 56.1489 10.286 56.5327 10.3781C56.9165 10.4702 57.2965 10.6007 57.6726 10.7696L57.2005 11.9556C56.8628 11.8097 56.5366 11.6946 56.2218 11.6101C55.9071 11.5257 55.5847 11.4835 55.2547 11.4835C54.9937 11.4835 54.7711 11.5257 54.5868 11.6101C54.4026 11.6869 54.2644 11.7982 54.1723 11.944C54.0802 12.0899 54.0342 12.2588 54.0342 12.4507C54.0342 12.6733 54.0917 12.8613 54.2069 13.0149C54.322 13.1684 54.4986 13.3142 54.7365 13.4524C54.9822 13.5829 55.2969 13.7326 55.6807 13.9014C56.1259 14.0933 56.502 14.2929 56.8091 14.5002C57.1161 14.7074 57.3541 14.9569 57.5229 15.2486C57.6918 15.5403 57.7762 15.9011 57.7762 16.3309ZM66.4672 18.5762H64.9933V14.9262H61.3779V18.5762H59.9041V10.3551H61.3779V13.6712H64.9933V10.3551H66.4672V18.5762ZM76.5289 14.4541C76.5289 15.0912 76.4483 15.6708 76.2871 16.1928C76.1335 16.707 75.8956 17.1523 75.5732 17.5284C75.2585 17.9045 74.8555 18.1924 74.3642 18.3919C73.8806 18.5915 73.3126 18.6913 72.6601 18.6913C72 18.6913 71.4243 18.5915 70.933 18.3919C70.4494 18.1847 70.0503 17.8968 69.7355 17.5284C69.4208 17.1523 69.1829 16.7032 69.0217 16.1812C68.8681 15.6593 68.7914 15.0797 68.7914 14.4426C68.7914 13.5906 68.9296 12.8498 69.2059 12.2204C69.4899 11.5909 69.9159 11.1035 70.484 10.7581C71.0597 10.405 71.7889 10.2284 72.6716 10.2284C73.539 10.2284 74.2567 10.405 74.8248 10.7581C75.3928 11.1035 75.8188 11.5948 76.1028 12.2319C76.3869 12.8613 76.5289 13.6021 76.5289 14.4541ZM70.3458 14.4541C70.3458 15.0759 70.4264 15.6094 70.5876 16.0546C70.7565 16.4998 71.0098 16.8414 71.3475 17.0793C71.6929 17.3173 72.1305 17.4363 72.6601 17.4363C73.2051 17.4363 73.6465 17.3173 73.9842 17.0793C74.322 16.8414 74.5715 16.4998 74.7327 16.0546C74.8939 15.6094 74.9745 15.0759 74.9745 14.4541C74.9745 13.5253 74.7941 12.7961 74.4333 12.2664C74.0725 11.7368 73.4853 11.472 72.6716 11.472C72.1343 11.472 71.6929 11.5909 71.3475 11.8289C71.0098 12.0669 70.7565 12.4084 70.5876 12.8537C70.4264 13.2989 70.3458 13.8324 70.3458 14.4541ZM81.3077 10.3551C82.3746 10.3551 83.1499 10.5777 83.6335 11.0229C84.1248 11.4681 84.3704 12.0822 84.3704 12.8652C84.3704 13.2183 84.3167 13.556 84.2092 13.8784C84.1018 14.1931 83.9214 14.4771 83.6681 14.7305C83.4148 14.9838 83.0808 15.1833 82.6663 15.3292C82.2595 15.475 81.7529 15.548 81.1465 15.548H80.329V18.5762H78.8552V10.3551H81.3077ZM81.2156 11.5756H80.329V14.3275H80.9968C81.3959 14.3275 81.7337 14.2814 82.01 14.1893C82.2941 14.0895 82.509 13.936 82.6548 13.7287C82.8007 13.5215 82.8736 13.2528 82.8736 12.9227C82.8736 12.4699 82.7393 12.1321 82.4706 11.9095C82.2019 11.6869 81.7836 11.5756 81.2156 11.5756Z" fill="white"/>
<path d="M8.19064 14.7324C8.19064 15.3695 8.11004 15.949 7.94884 16.471C7.79532 16.9853 7.55736 17.4305 7.23496 17.8066C6.92025 18.1828 6.51725 18.4706 6.02598 18.6702C5.54239 18.8698 4.97436 18.9696 4.32189 18.9696C3.66175 18.9696 3.08605 18.8698 2.59478 18.6702C2.11118 18.463 1.71203 18.1751 1.39731 17.8066C1.08259 17.4305 0.844631 16.9815 0.683434 16.4595C0.529912 15.9375 0.453151 15.358 0.453151 14.7209C0.453151 13.8688 0.591321 13.1281 0.867659 12.4986C1.15167 11.8692 1.5777 11.3818 2.14573 11.0363C2.72143 10.6832 3.45066 10.5067 4.33341 10.5067C5.2008 10.5067 5.91852 10.6832 6.48655 11.0363C7.05458 11.3818 7.4806 11.873 7.76461 12.5102C8.04863 13.1396 8.19064 13.8803 8.19064 14.7324ZM2.00756 14.7324C2.00756 15.3541 2.08816 15.8876 2.24935 16.3328C2.41823 16.7781 2.67154 17.1196 3.00928 17.3576C3.35471 17.5956 3.79224 17.7145 4.32189 17.7145C4.8669 17.7145 5.30827 17.5956 5.64602 17.3576C5.98376 17.1196 6.23324 16.7781 6.39443 16.3328C6.55563 15.8876 6.63623 15.3541 6.63623 14.7324C6.63623 13.8036 6.45584 13.0743 6.09507 12.5447C5.73429 12.015 5.14707 11.7502 4.33341 11.7502C3.79608 11.7502 3.35471 11.8692 3.00928 12.1072C2.67154 12.3451 2.41823 12.6867 2.24935 13.1319C2.08816 13.5771 2.00756 14.1106 2.00756 14.7324Z" fill="white"/>
</svg>
