<svg width="96" height="32" viewBox="0 0 96 32" fill="none" xmlns="http://www.w3.org/2000/svg">
<mask id="path-1-inside-1_11540_11" fill="white">
<path d="M11.421 23.9578V14.8819H22.3373C24.3271 14.454 28.1874 12.442 28.4708 7.76829H18.5731L11.421 0.899994H22.3373C24.3867 1.18617 28.4856 2.8133 28.4856 7.0324C28.4904 7.28471 28.4853 7.52996 28.4708 7.76829H29.9913C31.957 8.34064 35.1844 9.95142 35.5288 14.8819C35.5288 18.9047 31.8316 20.9325 29.9913 21.7502H18.5731V31.0714L11.421 23.9578Z"/>
</mask>
<path d="M11.421 23.9578H-4.8342C-4.8342 28.2842 -3.10954 32.432 -0.0421195 35.483L11.421 23.9578ZM11.421 14.8819V-1.37335C2.44351 -1.37335 -4.8342 5.90436 -4.8342 14.8819L11.421 14.8819ZM22.3373 14.8819V31.1371C23.4861 31.1371 24.6317 31.0153 25.7548 30.7738L22.3373 14.8819ZM28.4856 7.0324H12.2304C12.2304 7.13696 12.2314 7.24151 12.2334 7.34605L28.4856 7.0324ZM22.3373 0.899994L24.5854 -15.199C23.8405 -15.303 23.0894 -15.3552 22.3373 -15.3552L22.3373 0.899994ZM11.421 0.899994V-15.3552C4.78648 -15.3552 -1.18224 -11.3232 -3.65902 -5.16834C-6.1358 0.986553 -4.62351 8.02897 0.161786 12.6244L11.421 0.899994ZM18.5731 7.76829L7.31384 19.4927C10.3412 22.4 14.3758 24.0235 18.5731 24.0235V7.76829ZM29.9913 7.76829L34.5355 -7.83884C33.059 -8.26873 31.529 -8.48693 29.9913 -8.48693L29.9913 7.76829ZM35.5288 14.8819H51.784C51.784 14.504 51.7709 14.1262 51.7445 13.7492L35.5288 14.8819ZM29.9913 21.7502V38.0054C32.265 38.0054 34.5135 37.5284 36.5914 36.6051L29.9913 21.7502ZM18.5731 21.7502V5.49495C9.59557 5.49495 2.31786 12.7727 2.31786 21.7502L18.5731 21.7502ZM18.5731 31.0714L7.10994 42.5966C11.7658 47.2273 18.7505 48.602 24.8139 46.0809C30.8773 43.5598 34.8283 37.6381 34.8283 31.0714L18.5731 31.0714ZM27.6762 23.9578V14.8819H-4.8342V23.9578H27.6762ZM11.421 31.1371H22.3373V-1.37335H11.421V31.1371ZM25.7548 30.7738C31.4076 29.5582 43.7884 23.7225 44.6962 8.75231L12.2454 6.78427C12.3926 4.35687 13.6408 2.23041 15.083 0.913487C16.1829 -0.0908107 17.4114 -0.68566 18.9199 -1.01005L25.7548 30.7738ZM44.6962 8.75231C44.7374 8.07397 44.7508 7.39573 44.7378 6.71874L12.2334 7.34605C12.2301 7.1737 12.2332 6.98595 12.2454 6.78426L44.6962 8.75231ZM44.7408 7.0324C44.7408 -1.2109 40.4205 -7.115 35.9931 -10.4676C32.0562 -13.4488 27.749 -14.7573 24.5854 -15.199L20.0893 16.999C18.9751 16.8434 17.742 16.4916 16.3669 15.4503C15.5542 14.835 14.4758 13.801 13.599 12.2207C12.6746 10.5546 12.2304 8.7329 12.2304 7.0324H44.7408ZM22.3373 -15.3552H11.421V17.1552H22.3373V-15.3552ZM0.161786 12.6244L7.31384 19.4927L29.8323 -3.95613L22.6803 -10.8244L0.161786 12.6244ZM18.5731 24.0235H28.4708V-8.48693H18.5731V24.0235ZM28.4708 24.0235H29.9913V-8.48693H28.4708V24.0235ZM25.4471 23.3754C24.9294 23.2247 23.416 22.72 21.9006 21.2116C21.1026 20.4174 20.4275 19.4614 19.9565 18.4085C19.4905 17.3669 19.3475 16.5066 19.3131 16.0146L51.7445 13.7492C51.3115 7.54972 48.8497 2.16556 44.8356 -1.83001C41.1289 -5.51951 37.0189 -7.11576 34.5355 -7.83884L25.4471 23.3754ZM19.2736 14.8819C19.2736 13.2967 19.6597 11.7475 20.316 10.4037C20.9372 9.13183 21.6767 8.28886 22.1727 7.8111C23.0193 6.99549 23.6341 6.78725 23.3911 6.89519L36.5914 36.6051C38.1888 35.8954 41.5723 34.2645 44.7276 31.2248C48.1219 27.955 51.784 22.4647 51.784 14.8819H19.2736ZM29.9913 5.49495H18.5731V38.0054H29.9913V5.49495ZM2.31786 21.7502V31.0714H34.8283V21.7502H2.31786ZM30.0362 19.5463L22.8842 12.4327L-0.0421195 35.483L7.10994 42.5966L30.0362 19.5463Z" fill="white" mask="url(#path-1-inside-1_11540_11)"/>
<path d="M42.2443 20.9571H36.9646V11.6721H42.2443V13.0636H38.6291V15.4303H42.0102V16.8218H38.6291V19.5527H42.2443V20.9571ZM52.7597 20.9571H50.692L46.2966 13.6748H46.2446C46.2533 13.8655 46.262 14.0692 46.2706 14.286C46.288 14.494 46.301 14.7108 46.3096 14.9362C46.3183 15.1529 46.327 15.374 46.3356 15.5994C46.3443 15.8248 46.353 16.0502 46.3617 16.2756V20.9571H44.8662V11.6721H46.9208L51.3032 18.9025H51.3423C51.3336 18.7291 51.3249 18.5427 51.3162 18.3433C51.3076 18.1352 51.2989 17.9228 51.2902 17.7061C51.2902 17.4893 51.2859 17.2683 51.2772 17.0429C51.2686 16.8175 51.2599 16.6007 51.2512 16.3927V11.6721H52.7597V20.9571ZM65.2533 18.4213C65.2533 18.9675 65.1189 19.44 64.8501 19.8388C64.5814 20.2376 64.1913 20.5453 63.6798 20.7621C63.1769 20.9788 62.5744 21.0872 61.8722 21.0872C61.5341 21.0872 61.209 21.0655 60.8969 21.0221C60.5934 20.9875 60.303 20.9311 60.0256 20.8531C59.7568 20.7751 59.5054 20.6797 59.2713 20.567V19.0065C59.6615 19.1799 60.0906 19.3403 60.5588 19.4877C61.0269 19.6264 61.5037 19.6957 61.9892 19.6957C62.362 19.6957 62.6654 19.648 62.8995 19.5527C63.1423 19.4486 63.32 19.3099 63.4327 19.1365C63.5454 18.9545 63.6017 18.7464 63.6017 18.5123C63.6017 18.2523 63.528 18.0312 63.3807 17.8491C63.2333 17.6671 63.0166 17.498 62.7305 17.342C62.4444 17.1859 62.0889 17.0212 61.6641 16.8478C61.378 16.7264 61.0963 16.5921 60.8188 16.4447C60.5501 16.2886 60.3073 16.1022 60.0906 15.8855C59.8739 15.6688 59.7005 15.413 59.5704 15.1182C59.4404 14.8235 59.3754 14.4767 59.3754 14.0779C59.3754 13.5491 59.5011 13.0939 59.7525 12.7125C60.0126 12.331 60.3724 12.0406 60.8318 11.8412C61.3 11.6418 61.8418 11.5421 62.4574 11.5421C62.9515 11.5421 63.4153 11.5941 63.8488 11.6981C64.2823 11.8022 64.7114 11.9496 65.1362 12.1403L64.6031 13.4797C64.2216 13.315 63.8532 13.185 63.4977 13.0896C63.1423 12.9942 62.7781 12.9465 62.4054 12.9465C62.1106 12.9465 61.8592 12.9942 61.6511 13.0896C61.443 13.1763 61.287 13.302 61.183 13.4667C61.0789 13.6314 61.0269 13.8222 61.0269 14.0389C61.0269 14.2903 61.0919 14.5027 61.222 14.6761C61.352 14.8495 61.5514 15.0142 61.8202 15.1703C62.0976 15.3176 62.453 15.4867 62.8865 15.6774C63.3893 15.8942 63.8141 16.1196 64.1609 16.3536C64.5077 16.5877 64.7765 16.8695 64.9672 17.1989C65.1579 17.5284 65.2533 17.9358 65.2533 18.4213ZM75.0689 20.9571H73.4043V16.8348H69.321V20.9571H67.6565V11.6721H69.321V15.4173H73.4043V11.6721H75.0689V20.9571ZM86.4327 16.3016C86.4327 17.0212 86.3417 17.6757 86.1596 18.2653C85.9862 18.8461 85.7175 19.3489 85.3534 19.7737C84.9979 20.1985 84.5428 20.5237 83.9879 20.7491C83.4417 20.9745 82.8002 21.0872 82.0633 21.0872C81.3177 21.0872 80.6675 20.9745 80.1127 20.7491C79.5665 20.515 79.1157 20.1899 78.7602 19.7737C78.4048 19.3489 78.136 18.8418 77.954 18.2523C77.7806 17.6627 77.6939 17.0082 77.6939 16.2886C77.6939 15.3263 77.8499 14.4897 78.162 13.7788C78.4828 13.0679 78.964 12.5174 79.6055 12.1273C80.2557 11.7285 81.0793 11.5291 82.0763 11.5291C83.056 11.5291 83.8665 11.7285 84.5081 12.1273C85.1496 12.5174 85.6308 13.0723 85.9515 13.7918C86.2723 14.5027 86.4327 15.3393 86.4327 16.3016ZM79.4495 16.3016C79.4495 17.0039 79.5405 17.6064 79.7225 18.1092C79.9133 18.612 80.1994 18.9978 80.5808 19.2666C80.9709 19.5353 81.4651 19.6697 82.0633 19.6697C82.6788 19.6697 83.1773 19.5353 83.5588 19.2666C83.9402 18.9978 84.222 18.612 84.4041 18.1092C84.5861 17.6064 84.6771 17.0039 84.6771 16.3016C84.6771 15.2526 84.4734 14.429 84.0659 13.8308C83.6585 13.2326 82.9953 12.9335 82.0763 12.9335C81.4694 12.9335 80.9709 13.0679 80.5808 13.3367C80.1994 13.6054 79.9133 13.9912 79.7225 14.494C79.5405 14.9969 79.4495 15.5994 79.4495 16.3016ZM91.8299 11.6721C93.035 11.6721 93.9106 11.9236 94.4568 12.4264C95.0116 12.9292 95.2891 13.6228 95.2891 14.5071C95.2891 14.9058 95.2284 15.2873 95.107 15.6514C94.9856 16.0069 94.7819 16.3276 94.4958 16.6137C94.2097 16.8998 93.8326 17.1252 93.3644 17.2899C92.905 17.4547 92.3328 17.537 91.6479 17.537H90.7246V20.9571H89.0601V11.6721H91.8299ZM91.7259 13.0506H90.7246V16.1586H91.4788C91.9296 16.1586 92.3111 16.1066 92.6232 16.0025C92.944 15.8898 93.1867 15.7164 93.3514 15.4824C93.5162 15.2483 93.5985 14.9449 93.5985 14.5721C93.5985 14.0606 93.4468 13.6791 93.1434 13.4277C92.8399 13.1763 92.3675 13.0506 91.7259 13.0506Z" fill="white"/>
<path d="M9.2506 16.6159C9.2506 17.3355 9.15957 17.99 8.97751 18.5795C8.80413 19.1604 8.53537 19.6632 8.17125 20.088C7.81581 20.5128 7.36066 20.8379 6.80582 21.0633C6.25964 21.2887 5.6181 21.4014 4.8812 21.4014C4.13563 21.4014 3.48542 21.2887 2.93057 21.0633C2.3844 20.8293 1.93358 20.5041 1.57814 20.088C1.22269 19.6632 0.953937 19.156 0.771878 18.5665C0.598489 17.977 0.511795 17.3225 0.511795 16.6029C0.511795 15.6406 0.667845 14.804 0.979945 14.0931C1.30071 13.3822 1.78187 12.8317 2.42341 12.4416C3.07362 12.0428 3.89722 11.8434 4.8942 11.8434C5.87385 11.8434 6.68444 12.0428 7.32598 12.4416C7.96752 12.8317 8.44868 13.3865 8.76945 14.1061C9.09022 14.817 9.2506 15.6536 9.2506 16.6159ZM2.26736 16.6159C2.26736 17.3181 2.35839 17.9206 2.54045 18.4235C2.73117 18.9263 3.01727 19.3121 3.39872 19.5808C3.78885 19.8496 4.28301 19.984 4.8812 19.984C5.49673 19.984 5.99522 19.8496 6.37668 19.5808C6.75813 19.3121 7.03989 18.9263 7.22195 18.4235C7.40401 17.9206 7.49504 17.3181 7.49504 16.6159C7.49504 15.5669 7.29131 14.7433 6.88384 14.1451C6.47638 13.5469 5.81316 13.2478 4.8942 13.2478C4.28734 13.2478 3.78885 13.3822 3.39872 13.6509C3.01727 13.9197 2.73117 14.3055 2.54045 14.8083C2.35839 15.3111 2.26736 15.9137 2.26736 16.6159Z" fill="white"/>
</svg>
